<svg width="439" height="99" viewBox="0 0 439 99" fill="none" xmlns="http://www.w3.org/2000/svg">
<path d="M179.319 56.3214H179.829C180.706 57.8485 181.891 59.1766 183.309 60.2214C184.666 61.1046 186.261 61.5513 187.879 61.5014C189.134 61.5167 190.367 61.1695 191.429 60.5014C192.479 59.8525 193.335 58.9339 193.909 57.8414C194.508 56.7257 194.817 55.4777 194.809 54.2114C194.884 53.3704 194.756 52.5238 194.435 51.7425C194.115 50.9613 193.612 50.2682 192.969 49.7214C191.176 48.4978 189.234 47.5097 187.189 46.7814C185.036 46.0217 183.037 44.8801 181.289 43.4114C179.956 42.1848 179.289 40.3114 179.289 37.7914C179.213 36.4492 179.457 35.1082 180.001 33.8789C180.546 32.6497 181.374 31.5674 182.419 30.7214C184.697 29.0044 187.499 28.1282 190.349 28.2414C191.664 28.2457 192.972 28.4445 194.229 28.8314C195.423 29.18 196.523 29.7916 197.449 30.6214C197.189 31.2014 196.749 32.5714 196.109 34.7114H195.629C195.176 33.4321 194.342 32.3223 193.239 31.5314C192.13 30.7551 190.803 30.3523 189.449 30.3814C188.353 30.3679 187.269 30.6183 186.289 31.1114C185.342 31.5751 184.546 32.2992 183.995 33.1989C183.444 34.0986 183.161 35.1367 183.179 36.1914C183.099 37.0238 183.22 37.8632 183.532 38.6392C183.843 39.4152 184.336 40.1053 184.969 40.6514C186.775 41.8994 188.734 42.9078 190.799 43.6514C192.969 44.4231 194.996 45.5483 196.799 46.9814C197.5 47.669 198.042 48.5014 198.387 49.4203C198.733 50.3392 198.873 51.3225 198.799 52.3014C198.826 53.9271 198.506 55.5397 197.859 57.0314C197.254 58.4133 196.349 59.643 195.209 60.6314C194.06 61.6293 192.729 62.3966 191.289 62.8914C188.289 63.9269 185.029 63.9269 182.029 62.8914C180.647 62.5231 179.385 61.7991 178.369 60.7914C178.842 59.3388 179.16 57.8406 179.319 56.3214Z" fill="#FFEEDC"/>
<path d="M230.879 43.2715V29.0015L232.139 29.0915C232.448 29.1255 232.759 29.1422 233.069 29.1415C233.363 29.1418 233.657 29.1251 233.949 29.0915L235.249 29.0015V63.0015H234.369C234.129 63.0015 233.929 63.0015 233.769 62.9515H233.069H232.309C232.149 62.9515 231.939 62.9515 231.689 63.0015C231.439 63.0515 231.169 63.0015 230.879 63.0815V45.9215L227.389 45.8115C225.839 45.7515 224.489 45.7115 223.329 45.6915C222.169 45.6715 221.199 45.6915 220.419 45.6915C219.639 45.6915 218.689 45.6915 217.509 45.6915C216.329 45.6915 214.979 45.7515 213.429 45.8115L209.909 45.9215V63.0015H208.969L208.359 62.9515H207.649C207.399 62.9515 207.069 62.9515 206.649 62.9515L205.449 63.0515V29.0015L206.729 29.0915C207.035 29.125 207.342 29.1417 207.649 29.1415C207.947 29.1414 208.244 29.1247 208.539 29.0915L209.869 29.0015V43.3015C215.869 43.4615 219.373 43.5415 220.379 43.5415C221.386 43.5415 224.886 43.4515 230.879 43.2715Z" fill="#FFEEDC"/>
<path d="M257.26 28.2414L272.19 63.0014L271.19 62.9214C270.91 62.9214 270.68 62.9214 270.5 62.8714H269.66C269.33 62.8714 268.92 62.8714 268.42 62.8714L266.97 63.0014C265.283 58.1214 263.54 53.6381 261.74 49.5514H249.09C248.31 51.4914 247.67 53.1314 247.15 54.4614C246.63 55.7914 246.1 57.2214 245.55 58.7414C245 60.2614 244.55 61.6814 244.16 63.0014L243.41 62.9214L242.9 62.8714H242.31H241.7C241.538 62.8967 241.374 62.9133 241.21 62.9214C241.02 62.9214 240.81 62.9214 240.58 63.0014L256.12 28.2014L257.26 28.2414ZM260.97 47.5014L255.45 34.7514L250.04 47.5014H260.97Z" fill="#FFEEDC"/>
<path d="M309.691 29.0015H310.691C311.004 31.7948 311.337 34.7281 311.691 37.8015C312.044 40.8748 312.394 43.9415 312.741 47.0015C313.087 50.0615 313.394 52.6281 313.661 54.7015C313.921 56.7815 314.281 59.5615 314.751 63.0715L313.751 62.9915L313.121 62.9415H312.381H311.581L310.971 63.0015C310.711 63.0015 310.421 63.0015 310.101 63.0815C309.881 60.4215 309.651 57.6915 309.391 54.8915C309.131 52.0915 308.921 49.8915 308.751 48.1615C308.581 46.4315 308.381 44.5315 308.151 42.3515C307.921 40.1715 307.721 38.5115 307.541 37.3515C305.401 41.1648 303.581 44.4648 302.081 47.2515C300.581 50.0381 299.164 52.7815 297.831 55.4815C296.497 58.1481 295.391 60.4815 294.511 62.4815H293.971L291.241 56.8415C290.261 54.8015 289.164 52.6115 287.951 50.2715L284.511 43.6615L281.181 37.3115C280.874 40.0515 280.591 42.5081 280.331 44.6815C280.071 46.8515 279.791 49.3315 279.511 52.1015C279.231 54.8715 279.031 57.1015 278.921 58.7515C278.811 60.4015 278.751 61.8315 278.751 63.0215L277.971 63.0015C277.81 62.994 277.65 62.9773 277.491 62.9515H276.941H276.321L275.831 63.0015L275.141 63.0815C275.501 60.9415 276.081 57.1181 276.881 51.6115C277.691 46.1115 278.351 41.3815 278.881 37.4515C279.411 33.5215 279.761 30.6915 279.931 29.0115H281.211C282.981 32.4915 284.211 34.8715 284.841 36.1315C285.471 37.3915 286.501 39.3215 287.841 41.9015C289.181 44.4815 290.511 46.8415 291.741 49.0115C292.971 51.1815 294.151 53.2015 295.291 55.1015C296.084 53.6748 297.417 51.2315 299.291 47.7715C301.164 44.3115 302.441 41.9781 303.121 40.7715C303.791 39.5615 304.621 38.0315 305.621 36.2015C306.621 34.3715 308.041 31.9215 309.691 29.0015Z" fill="#FFEEDC"/>
<path d="M322.02 62.8915V29.0015H331.77C333.852 28.957 335.932 29.1753 337.96 29.6515C339.387 29.9745 340.678 30.7369 341.65 31.8315C342.522 32.9957 342.961 34.4282 342.89 35.8815C342.901 36.9503 342.7 38.0106 342.3 39.0015C341.907 39.9543 341.341 40.8258 340.63 41.5715C339.901 42.3326 339.058 42.9738 338.13 43.4715C337.124 43.9836 336.064 44.3795 334.97 44.6515C336.044 44.707 337.108 44.8882 338.14 45.1915C339.186 45.4872 340.181 45.9425 341.09 46.5415C341.998 47.1458 342.749 47.9584 343.28 48.9115C343.866 50.0081 344.155 51.2387 344.12 52.4815C344.155 54.151 343.762 55.8018 342.978 57.276C342.194 58.7502 341.044 59.9985 339.64 60.9015C338.702 61.5144 337.667 61.9641 336.58 62.2315C335.458 62.5355 334.309 62.7232 333.15 62.7915C332.03 62.8615 330.68 62.8915 329.15 62.8915H322.02ZM326.4 30.8115V44.0015H328.4C329.54 44.0122 330.679 43.942 331.81 43.7915C332.794 43.6527 333.754 43.3732 334.66 42.9615C335.807 42.4289 336.781 41.5832 337.47 40.5215C338.151 39.4465 338.499 38.1939 338.47 36.9215C338.532 35.6389 338.182 34.3701 337.47 33.3015C336.764 32.3644 335.764 31.6916 334.63 31.3915C333.126 30.9933 331.574 30.8081 330.02 30.8415L326.4 30.8115ZM326.4 45.8115V61.0015H331.13C332.642 61.0227 334.137 60.6797 335.49 60.0015C336.729 59.3819 337.769 58.4253 338.49 57.2415C339.202 56.0303 339.569 54.6467 339.55 53.2415C339.55 50.4949 338.65 48.5548 336.85 47.4215C335.06 46.2915 332.51 45.7315 329.22 45.7315L326.4 45.8115Z" fill="#FFEEDC"/>
<path d="M365.189 28.2416L380.119 63.0016L379.119 62.9216L378.429 62.8716H377.589C377.269 62.8716 376.849 62.8716 376.349 62.8716L374.939 62.9716C373.246 58.0916 371.502 53.6083 369.709 49.5216H356.969C356.196 51.4616 355.549 53.0983 355.029 54.4316C354.509 55.7616 353.979 57.1916 353.439 58.7116C352.899 60.2316 352.439 61.6516 352.039 62.9716L351.299 62.8916C351.128 62.8839 350.958 62.8672 350.789 62.8416H350.189H349.579L349.099 62.8916C348.899 62.8916 348.689 62.8916 348.459 62.9716L363.999 28.1716L365.189 28.2416ZM368.909 47.5016L363.389 34.7516L357.969 47.5016H368.909Z" fill="#FFEEDC"/>
<path d="M389.72 29.0015V60.5615C391.72 60.5615 394.72 60.4948 398.72 60.3615C399.25 60.3615 399.98 60.2915 400.89 60.1915L403.46 59.9015C403.46 60.2615 403.39 60.5615 403.36 60.8015C403.331 61.0036 403.314 61.2073 403.31 61.4115C403.316 61.6155 403.333 61.8191 403.36 62.0215C403.36 62.2715 403.42 62.5715 403.46 62.8915H385.35V29.0015L386.62 29.0915C387.221 29.1581 387.828 29.1581 388.43 29.0915L389.72 29.0015Z" fill="#FFEEDC"/>
<path d="M423.309 28.2415L438.239 63.0015L437.239 62.9215L436.549 62.8715H435.709C435.389 62.8715 434.969 62.8715 434.469 62.8715L432.969 63.0015C431.276 58.1215 429.532 53.6381 427.739 49.5515H415.129C414.356 51.5181 413.709 53.1681 413.189 54.5015C412.669 55.8315 412.139 57.2615 411.599 58.7815C411.059 60.3015 410.599 61.7215 410.199 63.0415L409.459 62.9615C409.288 62.9538 409.118 62.9371 408.949 62.9115H408.349H407.739L407.259 62.9615C407.059 62.9615 406.849 62.9615 406.619 63.0415L422.159 28.2415H423.309ZM427.029 47.5015L421.509 34.7515L416.079 47.5015H427.029Z" fill="#FFEEDC"/>
<path d="M181.141 17.4315V0.261475H183.381V17.4315H181.141ZM181.871 9.60147V7.80147H194.871V9.60147H181.871ZM193.351 17.4315V0.261475H195.561V17.4315H193.351Z" fill="#FFEEDC"/>
<path d="M213.59 17.6915C212.027 17.7157 210.486 17.3295 209.12 16.5715C207.819 15.8401 206.748 14.7594 206.03 13.4515C205.275 12.0908 204.885 10.5576 204.9 9.00152C204.88 7.73995 205.118 6.48761 205.6 5.32152C206.053 4.24699 206.735 3.28452 207.6 2.50152C208.446 1.72363 209.429 1.10986 210.5 0.691524C211.602 0.243964 212.78 0.00981774 213.97 0.00152402C215.529 -0.0275204 217.069 0.359041 218.43 1.12152C219.718 1.85465 220.777 2.93137 221.49 4.23152C222.246 5.6127 222.628 7.16723 222.6 8.74152C222.62 10.0031 222.381 11.2554 221.9 12.4215C221.454 13.4758 220.8 14.4292 219.977 15.2247C219.153 16.0203 218.178 16.6416 217.11 17.0515C215.986 17.4817 214.793 17.6988 213.59 17.6915ZM213.97 16.0015C215.123 16.0281 216.261 15.7264 217.25 15.1315C218.19 14.5363 218.942 13.6868 219.42 12.6815C219.966 11.5472 220.236 10.3001 220.21 9.04152C220.241 7.68466 219.935 6.34126 219.32 5.13152C218.773 4.06139 217.943 3.162 216.92 2.53152C215.89 1.90626 214.704 1.58394 213.5 1.60152C212.377 1.58401 211.272 1.88198 210.31 2.46152C209.367 3.05222 208.611 3.89832 208.13 4.90152C207.59 6.04837 207.323 7.30442 207.35 8.57152C207.318 9.92614 207.617 11.2681 208.22 12.4815C208.76 13.5531 209.587 14.4533 210.61 15.0815C211.623 15.694 212.786 16.0125 213.97 16.0015Z" fill="#FFEEDC"/>
<path d="M228.971 2.00147V0.261475H243.971V2.00147H228.971ZM235.281 17.4215V0.261475H237.551V17.4315L235.281 17.4215Z" fill="#FFEEDC"/>
<path d="M263.44 17.4315H252.51V0.261475H262.61V2.00147H254.61V15.6515H263.4L263.44 17.4315ZM253.24 9.57147V7.85147H261.62V9.57147H253.24Z" fill="#FFEEDC"/>
<path d="M272.73 17.4315V0.261475H274.97V17.4315H272.73ZM273.46 17.4315V15.6815H283.71V17.4315H273.46Z" fill="#FFEEDC"/>
<path d="M180.379 98.1116V85.6216H181.969V98.1116H180.379ZM187.709 98.1116L181.709 91.7316L187.119 85.6216H189.119L183.059 92.0016L183.189 91.2216L190.079 98.1316L187.709 98.1116Z" fill="#FFEEDC"/>
<path d="M210.49 98.1116L206.15 86.4916H206.77L202.45 98.1116H200.82L205.97 85.6216H207.35L212.27 98.1116H210.49ZM203.07 94.0016L203.53 92.7316H209.11L209.79 94.0016H203.07Z" fill="#FFEEDC"/>
<path d="M221.971 86.8916V85.6216H232.821V86.8916H221.971ZM226.561 98.1116V85.6216H228.211V98.1116H226.561Z" fill="#FFEEDC"/>
<path d="M245.27 98.1116V85.6216H246.9V98.1116H245.27ZM245.8 92.4116V91.1016H255.25V92.4116H245.8ZM254.15 98.1116V85.6216H255.76V98.1116H254.15Z" fill="#FFEEDC"/>
<path d="M269.42 98.1116L270.24 85.6216H271.42L270.9 98.1116H269.42ZM281.7 98.1116L281.2 86.3816L281.96 86.0816L276.8 97.0816H275.8L270.97 86.7416V85.6216H272.11L276.81 95.4316H276.34L280.91 85.6216H282.62L283.36 98.1116H281.7Z" fill="#FFEEDC"/>
<path d="M305.379 98.1116L301.029 86.4916H301.659L297.329 98.1116H295.699L300.819 85.6216H302.209L307.119 98.1116H305.379ZM297.969 94.0016L298.419 92.7316H303.969L304.669 94.0016H297.969Z" fill="#FFEEDC"/>
<path d="M319.779 98.1116V85.6216H321.029L321.259 98.1116H319.779ZM329.779 98.1116H329.109L320.309 86.7016V85.6216H321.389L329.679 96.3616L329.779 98.1116ZM330.459 85.6216V98.1116H329.189L328.969 85.6216H330.459Z" fill="#FFEEDC"/>
<path d="M344.35 98.1115V85.6215H348.27C349.235 85.6123 350.196 85.7505 351.12 86.0315C351.933 86.2764 352.689 86.6847 353.34 87.2315C353.955 87.7433 354.444 88.39 354.77 89.1215C355.116 89.9156 355.287 90.7753 355.27 91.6415C355.269 92.4376 355.137 93.2281 354.88 93.9815C354.602 94.7549 354.174 95.4654 353.62 96.0715C353.004 96.7276 352.249 97.2368 351.41 97.5615C350.371 97.9486 349.268 98.1353 348.16 98.1115H344.35ZM345.97 96.9315H348.3C349.145 96.9525 349.986 96.8134 350.78 96.5215C351.407 96.2886 351.967 95.9038 352.41 95.4015C352.816 94.9372 353.12 94.3918 353.3 93.8015C353.485 93.192 353.579 92.5585 353.58 91.9215C353.588 91.0347 353.389 90.1581 353 89.3615C352.599 88.5784 351.971 87.9339 351.2 87.5115C350.216 87.014 349.121 86.7764 348.02 86.8215H345.97V96.9315Z" fill="#FFEEDC"/>
<path d="M373.089 98.3016C372.157 98.32 371.235 98.1033 370.409 97.6716C369.653 97.265 369.028 96.6509 368.609 95.9016C368.163 95.0768 367.942 94.1489 367.969 93.2116V85.6216H369.619V92.8916C369.599 93.6464 369.753 94.3958 370.069 95.0816C370.356 95.6682 370.808 96.1583 371.369 96.4916C371.978 96.8355 372.669 97.0083 373.369 96.9916C374.066 97.0155 374.756 96.8533 375.369 96.5216C375.907 96.2154 376.343 95.7559 376.619 95.2016C376.927 94.5809 377.078 93.8942 377.059 93.2016V85.6216H378.459V92.8916C378.482 93.8776 378.258 94.8537 377.809 95.7316C377.387 96.523 376.749 97.1784 375.969 97.6216C375.086 98.0992 374.092 98.3338 373.089 98.3016Z" fill="#FFEEDC"/>
<path d="M410.099 73.3615H178.789C178.678 73.3615 178.571 73.3172 178.492 73.2385C178.413 73.1597 178.369 73.0529 178.369 72.9415C178.369 72.8301 178.413 72.7233 178.492 72.6445C178.571 72.5657 178.678 72.5215 178.789 72.5215H410.099C410.211 72.5215 410.317 72.5657 410.396 72.6445C410.475 72.7233 410.519 72.8301 410.519 72.9415C410.519 73.0529 410.475 73.1597 410.396 73.2385C410.317 73.3172 410.211 73.3615 410.099 73.3615Z" fill="#FFEEDC"/>
<path d="M168.13 53.3715C168.037 53.1715 167.898 52.9964 167.724 52.8608C167.55 52.7252 167.346 52.6328 167.13 52.5915C166.123 52.3281 165.09 52.1739 164.05 52.1315C162.501 52.1307 160.981 51.7128 159.65 50.9215C157.388 49.528 154.671 49.0757 152.08 49.6615C150.039 50.19 147.938 50.4521 145.83 50.4415C145.095 50.4377 144.379 50.2073 143.78 49.7815C142.56 48.7616 141.637 47.4316 141.11 45.9315C139.61 42.3415 137.72 40.7315 133.59 40.7915C132.552 40.7531 131.532 40.5083 130.59 40.0715C129.221 39.4199 127.766 38.9654 126.27 38.7215C124.34 38.5015 122.5 38.6615 121.17 40.3315C120.569 41.1737 120.044 42.0671 119.6 43.0015C119.169 44.0235 118.48 44.916 117.6 45.5915C116.947 46.0238 116.215 46.3217 115.445 46.4676C114.676 46.6135 113.886 46.6047 113.12 46.4415C111.27 46.0615 109.76 44.4415 111.12 42.4415C111.202 42.2922 111.327 42.1706 111.478 42.0923C111.629 42.014 111.801 41.9823 111.97 42.0015C112.38 42.0815 112.19 42.4715 112.21 42.7215C112.206 43.0797 112.291 43.4332 112.458 43.7501C112.625 44.0669 112.869 44.3369 113.167 44.5356C113.465 44.7343 113.808 44.8554 114.165 44.8878C114.522 44.9203 114.881 44.8631 115.21 44.7215C117.56 44.0115 118.69 42.2515 119.28 40.0315C119.458 39.5127 119.482 38.9537 119.35 38.4215C119.092 37.5444 118.659 36.7283 118.079 36.0221C117.498 35.3159 116.781 34.7341 115.97 34.3115C114.504 33.5836 112.898 33.1809 111.262 33.1308C109.625 33.0807 107.998 33.3846 106.49 34.0215C106.313 34.1259 106.103 34.1591 105.903 34.1146C105.702 34.07 105.526 33.951 105.41 33.7815C103.868 31.9152 101.985 30.3607 99.8599 29.2015C96.7499 27.5015 93.5199 26.3215 89.8599 26.8615C87.1053 27.2697 84.5188 28.4365 82.3899 30.2315C81.5599 30.9315 80.9599 31.8715 80.0799 32.5315C79.1542 33.4296 77.9288 33.9533 76.6399 34.0015C76.0093 33.9827 75.4016 33.7615 74.9064 33.3708C74.4112 32.98 74.0548 32.4403 73.8899 31.8315C73.8899 31.4515 73.8199 30.9815 74.3199 30.9315C74.8199 30.8815 74.8799 31.3615 74.8699 31.7415C74.8559 32.0792 74.9572 32.4116 75.157 32.6842C75.3569 32.9568 75.6436 33.1533 75.9699 33.2415C76.421 33.3917 76.9087 33.3917 77.3599 33.2415C78.0088 33.1454 78.6191 32.8739 79.1249 32.4562C79.6307 32.0385 80.0128 31.4905 80.2299 30.8715C80.5372 30.2104 80.631 29.4701 80.4984 28.7533C80.3658 28.0365 80.0133 27.3788 79.4899 26.8715C78.466 25.8333 77.1926 25.0757 75.7917 24.6712C74.3908 24.2667 72.9095 24.2289 71.4899 24.5615C70.7861 24.6739 70.1174 24.946 69.535 25.3568C68.9526 25.7676 68.4719 26.3062 68.1299 26.9315C67.6564 27.8308 67.3418 28.8051 67.1999 29.8115C66.9969 30.6986 66.9809 31.6182 67.1531 32.5118C67.3253 33.4054 67.6818 34.2533 68.1999 35.0015C69.2184 36.3112 70.3603 37.5201 71.6099 38.6115C72.2097 39.0894 72.6778 39.7123 72.9699 40.4215C73.4837 42.1767 73.7067 44.0042 73.6299 45.8315C73.5923 47.1716 73.6928 48.512 73.9299 49.8315C74.1407 51.5328 74.9111 53.1158 76.1199 54.3315C77.5474 55.6269 79.1882 56.6655 80.9699 57.4015C82.8645 58.4032 85.0021 58.8536 87.1399 58.7015C88.6608 58.5841 90.1285 58.0892 91.4099 57.2615C93.1312 56.0325 94.4365 54.3074 95.1513 52.3168C95.866 50.3261 95.9563 48.1648 95.4099 46.1215C95.0254 44.808 94.2069 43.6636 93.088 42.8754C91.9692 42.0871 90.6162 41.7015 89.2499 41.7815C87.9299 41.9315 86.7099 42.2515 86.0299 43.5315C85.3499 44.8115 85.3699 46.2115 86.5099 47.0415C86.8793 47.3012 87.2877 47.5003 87.7199 47.6315C87.8699 47.6315 88.0799 47.7215 88.0799 47.9215C88.0799 48.1215 87.9199 48.2115 87.7699 48.2815C87.4385 48.445 87.0698 48.5181 86.7011 48.4935C86.3323 48.469 85.9766 48.3475 85.6699 48.1415C84.4599 47.3815 83.5799 44.6115 85.0799 43.1415C85.8692 42.3696 86.8098 41.7694 87.8424 41.3787C88.875 40.9881 89.9773 40.8154 91.0799 40.8715C92.1894 40.8953 93.2647 41.2604 94.1593 41.917C95.054 42.5737 95.7246 43.4901 96.0799 44.5415C96.6636 46.2992 96.8246 48.1698 96.5499 50.0015C96.239 52.6884 94.9376 55.1628 92.8999 56.9415C90.9714 58.6027 88.5151 59.5242 85.9699 59.5415C84.5739 59.5612 83.1806 59.4134 81.8199 59.1015C79.5192 58.7201 77.4094 57.5879 75.8199 55.8815C74.5678 54.4585 73.5118 52.8745 72.6799 51.1715C72.3099 50.4615 72.0099 50.4015 71.4499 50.9515C70.8899 51.5015 70.5099 52.0015 69.9699 52.4015C66.9699 55.0615 63.6299 56.0715 59.6999 54.5415C55.2999 52.8115 54.4799 47.3015 57.6999 44.8815C59.5699 43.4915 60.6999 43.1815 62.5099 44.2015C62.7318 44.3547 62.9203 44.5513 63.0643 44.7793C63.2083 45.0074 63.3047 45.2621 63.3476 45.5284C63.3906 45.7946 63.3793 46.0668 63.3144 46.3285C63.2494 46.5903 63.1323 46.8362 62.9699 47.0515C62.8099 47.2315 62.6299 47.5515 62.3399 47.4115C62.0499 47.2715 62.2599 46.9415 62.3399 46.7215C62.4901 46.4086 62.5353 46.0556 62.4686 45.7151C62.4019 45.3745 62.227 45.0645 61.9699 44.8315C61.6986 44.5563 61.3412 44.3823 60.9573 44.3387C60.5733 44.295 60.186 44.3842 59.8599 44.5915C59.1198 44.9934 58.4665 45.5379 57.9379 46.1935C57.4093 46.8492 57.0157 47.603 56.7799 48.4115C56.6776 48.7345 56.6336 49.0731 56.6499 49.4115C57.0999 53.2915 59.9199 54.7515 63.1999 54.6315C65.3684 54.4821 67.4402 53.6764 69.1399 52.3215C70.7499 51.1215 72.1399 49.7515 72.4299 47.6315C72.7567 45.5746 72.6442 43.4718 72.0999 41.4615C71.6683 39.8444 70.7794 38.3861 69.5399 37.2615C67.6677 35.6316 65.3173 34.653 62.8416 34.4727C60.3659 34.2923 57.8985 34.92 55.8099 36.2615C55.3385 36.6277 54.7802 36.8654 54.1895 36.9513C53.5989 37.0371 52.996 36.9683 52.4399 36.7515C48.8999 35.6315 45.4399 35.7515 42.2699 38.0215C40.1999 39.5115 38.7099 41.3515 38.9099 44.2215C38.954 45.2363 39.1985 46.2324 39.6293 47.1523C40.0601 48.0722 40.6686 48.8978 41.4199 49.5815C41.8182 50.0122 42.3064 50.3501 42.8499 50.5711C43.3935 50.7921 43.9789 50.8909 44.5649 50.8603C45.1508 50.8298 45.7228 50.6707 46.2404 50.3944C46.758 50.1181 47.2085 49.7313 47.5599 49.2615C48.9199 47.7115 48.5599 46.0215 46.7699 45.2615C46.6199 45.2015 46.4199 45.1815 46.4299 44.9715C46.4399 44.7615 46.6199 44.7415 46.7699 44.6715C47.4508 44.5624 48.1482 44.7012 48.7354 45.0627C49.3226 45.4242 49.7607 45.9844 49.9699 46.6415C50.9699 50.3815 49.7599 53.0915 46.3599 55.0815C45.3888 55.6316 44.2794 55.8894 43.1652 55.8238C42.0511 55.7581 40.9796 55.3719 40.0799 54.7115C38.4299 53.6415 36.8499 52.4915 35.1999 51.4415C33.024 49.9925 30.3789 49.4241 27.7999 49.8515C25.7645 50.202 23.7587 50.7067 21.7999 51.3615C18.9384 52.4418 15.7813 52.4418 12.9199 51.3615C11.1166 50.6227 9.15686 50.3476 7.21987 50.5615C5.25628 50.9307 3.22968 50.7685 1.34987 50.0915C0.929865 49.9015 0.409865 49.6615 0.0998653 50.2415C-0.210135 50.8215 0.269865 51.0915 0.609865 51.4115C0.679718 51.4768 0.756898 51.5339 0.839865 51.5815C2.65811 52.7025 4.66896 53.4756 6.76987 53.8615C8.88837 54.1643 10.801 55.2931 12.0899 57.0015C12.5464 57.6409 13.1368 58.1733 13.8199 58.5615C14.6544 59.0152 15.5735 59.292 16.5198 59.3746C17.4662 59.4572 18.4193 59.3438 19.3199 59.0415C20.5883 58.5817 21.9214 58.3252 23.2699 58.2815C24.5457 58.2351 25.8058 58.5749 26.8852 59.2565C27.9647 59.938 28.8133 60.9296 29.3199 62.1015C30.1215 63.8788 31.3812 65.4111 32.9699 66.5415C34.7267 67.8984 36.9455 68.5123 39.1499 68.2515C39.6299 68.2515 40.2999 68.0615 40.6199 68.4515C41.7699 69.8715 43.3999 70.3215 45.0199 70.8715C46.2779 71.2637 47.6071 71.373 48.9124 71.1915C50.2176 71.01 51.4666 70.5421 52.5699 69.8215C54.31 68.8121 55.9507 67.6402 57.4699 66.3215C58.1602 65.6745 59.0622 65.3005 60.0079 65.2692C60.9535 65.2379 61.8783 65.5515 62.6099 66.1515C63.0631 66.4189 63.3988 66.8474 63.5499 67.3515C63.6599 67.8315 63.7699 68.4115 63.3099 68.6515C62.8499 68.8915 62.5999 68.3615 62.3099 68.0215V67.9615C61.9937 67.4654 61.5036 67.1053 60.9357 66.9517C60.3677 66.7982 59.763 66.8623 59.2399 67.1315C58.4227 67.4327 57.6946 67.9352 57.123 68.5924C56.5515 69.2496 56.1549 70.0404 55.9699 70.8915C55.7148 71.9751 55.6371 73.093 55.7399 74.2015C55.8107 75.4794 56.2367 76.7123 56.9699 77.7615C57.7772 78.857 58.8323 79.7461 60.0488 80.3561C61.2654 80.9661 62.609 81.2798 63.9699 81.2715C65.5999 81.2715 67.2299 81.2715 68.8599 81.2715C69.0716 81.2679 69.2825 81.2445 69.4899 81.2015C70.4199 81.0315 70.4299 81.0415 70.6499 81.9215C70.9379 83.2804 71.4974 84.5672 72.2947 85.7047C73.092 86.8423 74.1107 87.8071 75.2899 88.5415C77.008 89.4959 78.8911 90.1168 80.8399 90.3715C82.2487 90.5544 83.6696 90.6279 85.0899 90.5915C86.479 90.5456 87.8425 90.2047 89.0899 89.5915C90.8892 88.9219 92.5206 87.8673 93.8699 86.5015C95.4138 84.7856 96.4098 82.6474 96.7299 80.3615C97.2299 77.1515 95.8599 73.1115 92.2999 71.6115C90.0599 70.6715 86.5699 70.7115 84.6999 73.0815C83.5599 74.5315 83.0099 76.5715 85.5499 77.5815C86.0499 77.7815 86.5499 78.0215 87.0399 78.2515C87.205 78.3176 87.3496 78.4266 87.4585 78.5672C87.5675 78.7079 87.637 78.875 87.6599 79.0515C87.6599 79.4815 87.2499 79.5915 86.9299 79.7315C86.1953 79.9409 85.4084 79.8622 84.7299 79.5115C84.3088 79.4035 83.9145 79.2099 83.5717 78.9427C83.2289 78.6754 82.9449 78.3403 82.7374 77.9583C82.53 77.5763 82.4036 77.1557 82.3662 76.7226C82.3288 76.2895 82.3811 75.8534 82.5199 75.4415C83.6699 71.3015 87.5199 69.6615 91.2199 70.3015C92.3024 70.5025 93.3279 70.9378 94.2245 71.5769C95.121 72.2161 95.8669 73.0436 96.4099 74.0015C97.4167 75.6423 97.9337 77.5367 97.8999 79.4615C97.8204 80.899 97.5445 82.3188 97.0799 83.6815C96.9975 83.8422 96.9602 84.0223 96.9719 84.2026C96.9837 84.3828 97.044 84.5566 97.1466 84.7053C97.2492 84.854 97.3901 84.9721 97.5544 85.0472C97.7187 85.1222 97.9003 85.1514 98.0799 85.1315C98.3599 85.1315 98.6399 85.1315 98.9299 85.1315C100.694 85.3541 102.484 85.249 104.21 84.8215C106.289 84.1921 108.121 82.9303 109.45 81.2115C110.269 80.2768 110.889 79.1844 111.27 78.0015C111.43 77.4315 111.34 77.0015 110.69 76.9015C109.681 76.6309 108.715 76.2202 107.82 75.6815C105.44 74.3315 103.24 72.8015 102.19 70.1115C100.8 66.6015 101.32 63.4315 104.19 60.9815C105.494 59.8446 107.084 59.0847 108.787 58.7834C110.491 58.4821 112.245 58.6509 113.86 59.2715C115.64 59.8615 117.29 61.7315 117.05 63.5615C116.935 64.239 116.705 64.8918 116.37 65.4915C115.6 66.9615 114.37 68.0615 112.58 67.6415C111.44 67.3815 110.67 66.6415 110.77 65.8015C110.77 65.4815 110.91 65.1715 111.27 65.1015C111.63 65.0315 111.68 65.3515 111.8 65.5715C111.92 65.7915 111.97 65.9115 112.05 66.0815C112.144 66.3065 112.291 66.5051 112.479 66.6598C112.668 66.8146 112.891 66.9208 113.13 66.9692C113.369 67.0175 113.616 67.0066 113.849 66.9372C114.083 66.8679 114.296 66.7423 114.47 66.5715C114.995 66.1416 115.387 65.5709 115.6 64.9262C115.812 64.2815 115.837 63.5895 115.67 62.9315C115.16 60.1315 112.12 58.9315 109.78 59.1415C108.365 59.2661 106.997 59.7106 105.78 60.4415C104.891 60.8953 104.114 61.5391 103.502 62.3272C102.89 63.1152 102.459 64.0283 102.24 65.0015C101.5 68.3115 102.72 71.0015 105.11 73.2715C106.355 74.4147 107.785 75.3378 109.34 76.0015C111.717 77.1197 114.384 77.4692 116.97 77.0015C119.398 76.6219 121.643 75.4803 123.38 73.7415C124.694 72.2416 125.687 70.4891 126.3 68.5915C127.051 66.7994 127.436 64.8747 127.43 62.9315C127.305 61.7927 127.255 60.6469 127.28 59.5015C127.47 57.3315 128.71 56.1915 130.85 56.4415C131.345 56.5036 131.831 56.621 132.3 56.7915C134.04 57.4015 135.76 58.0715 137.51 58.6515C139.931 59.4895 142.524 59.7027 145.05 59.2715C146.682 58.9326 148.213 58.2169 149.52 57.1815C150.762 56.2279 152.199 55.5598 153.729 55.2245C155.258 54.8892 156.843 54.895 158.37 55.2415C160.139 55.6087 161.971 55.5435 163.71 55.0515C164.973 54.6638 166.28 54.4387 167.6 54.3815C168.15 54.3615 168.36 53.9015 168.13 53.3715ZM157.56 53.7315C156.057 53.4751 154.518 53.5338 153.039 53.9039C151.56 54.2741 150.175 54.9475 148.97 55.8815C147.679 56.9249 146.162 57.651 144.54 58.0015C142.356 58.3418 140.122 58.1321 138.04 57.3915C136.4 56.8415 134.8 56.1815 133.19 55.5615C131.755 55.0422 130.196 54.9724 128.72 55.3615C128.14 55.5085 127.611 55.8075 127.185 56.2276C126.76 56.6478 126.454 57.1738 126.3 57.7515C125.834 59.1968 125.714 60.7313 125.95 62.2315C126.1 63.4757 125.998 64.7376 125.65 65.9415C125.174 67.8721 124.416 69.722 123.4 71.4315C122.073 73.4501 120.022 74.8821 117.67 75.4315C112.81 76.9015 106.45 74.0015 104.29 70.0015C102.48 66.6215 103.51 63.0515 106.99 61.4415C107.661 61.0908 108.364 60.8061 109.09 60.5915C109.804 60.4163 110.548 60.4007 111.269 60.5459C111.989 60.6911 112.669 60.9935 113.26 61.4315C114.57 62.3215 114.8 64.9815 113.38 65.5715L113.06 64.9615C112.52 63.9115 111.82 63.4815 110.94 63.6815C110.485 63.856 110.092 64.1605 109.809 64.5571C109.526 64.9537 109.367 65.4247 109.35 65.9115C109.331 66.4736 109.484 67.028 109.79 67.5001C110.096 67.9721 110.539 68.3391 111.06 68.5515C112.154 69.0424 113.388 69.1236 114.538 68.7803C115.687 68.437 116.674 67.6921 117.32 66.6815C118.74 64.2015 119.01 62.4515 117.41 60.2015C116.881 59.4899 116.216 58.8902 115.454 58.4371C114.692 57.984 113.848 57.6864 112.97 57.5615C111.502 57.2283 109.982 57.1975 108.501 57.4708C107.021 57.7442 105.612 58.316 104.36 59.1515C103.135 59.9246 102.12 60.9881 101.405 62.2475C100.69 63.507 100.296 64.9236 100.26 66.3715C100.161 67.8287 100.393 69.2893 100.936 70.6449C101.48 72.0005 102.322 73.2161 103.4 74.2015C105.132 75.7467 107.179 76.8966 109.4 77.5715C109.99 77.7615 110.08 77.9715 109.78 78.5015C109.173 79.7059 108.328 80.7751 107.297 81.6447C106.266 82.5143 105.07 83.1663 103.78 83.5615C102.195 83.8599 100.577 83.944 98.9699 83.8115C98.5699 83.8115 98.6899 83.5515 98.7499 83.3115C99.1704 81.859 99.3793 80.3535 99.3699 78.8415C99.1599 74.1515 96.6299 70.0915 91.5799 69.0515C86.7599 68.0515 82.3899 70.5515 81.3599 75.3815C80.7999 77.9815 81.7499 79.6915 84.6699 80.8515C85.2576 81.1376 85.9109 81.2625 86.5627 81.2133C87.2146 81.1641 87.8417 80.9426 88.3799 80.5715C88.5968 80.4188 88.7789 80.222 88.9144 79.9939C89.0498 79.7659 89.1354 79.5118 89.1656 79.2482C89.1959 78.9847 89.17 78.7178 89.0897 78.465C89.0094 78.2122 88.8766 77.9793 88.6999 77.7815C88.071 77.136 87.2907 76.6581 86.4299 76.3915C85.0599 75.8315 84.9499 75.2315 85.8599 74.0515C86.5743 73.2237 87.5447 72.658 88.6171 72.4443C89.6895 72.2305 90.8026 72.3809 91.7799 72.8715C92.9174 73.3378 93.8842 74.1422 94.5496 75.176C95.2149 76.2098 95.5466 77.423 95.4999 78.6515C95.5999 82.7815 93.6499 85.7415 90.0899 87.7615C87.0799 89.4015 84.0199 89.4915 80.8699 89.0015C79.2729 88.794 77.7274 88.2957 76.3099 87.5315C75.155 86.8723 74.1606 85.9655 73.3981 84.8762C72.6356 83.7869 72.1239 82.5421 71.8999 81.2315C71.8999 81.1415 71.8999 81.0415 71.8999 80.9515C71.5899 79.5915 71.4599 79.6615 70.0799 79.7415C66.9899 79.9215 63.8199 80.5215 60.8499 79.1315C59.7554 78.6842 58.8175 77.9236 58.1539 76.945C57.4903 75.9665 57.1305 74.8137 57.1199 73.6315C57.0685 72.6657 57.1835 71.6983 57.4599 70.7715C57.6452 70.2138 57.9603 69.7081 58.3793 69.2961C58.7983 68.884 59.3092 68.5774 59.8699 68.4015C59.9988 68.3401 60.1387 68.3054 60.2813 68.2995C60.424 68.2936 60.5663 68.3165 60.6999 68.367C60.8334 68.4174 60.9554 68.4943 61.0585 68.593C61.1616 68.6917 61.2437 68.8102 61.2999 68.9415C61.5057 69.3318 61.8227 69.6522 62.2108 69.8623C62.5989 70.0723 63.0405 70.1625 63.4799 70.1215C64.7199 70.0215 65.0799 68.7615 64.9999 67.5615C64.8599 65.4315 62.7199 64.4015 61.1099 63.9515C59.3299 63.4515 57.8899 64.2815 56.5799 65.2715C55.0177 66.5925 53.3449 67.7769 51.5799 68.8115C50.6707 69.3659 49.6546 69.722 48.5982 69.8564C47.5418 69.9908 46.4689 69.9005 45.4499 69.5915C43.8599 69.0515 42.2999 68.5915 41.2199 67.1715C40.9899 66.8915 40.6699 66.9415 40.3699 66.9315C39.0898 67.0204 37.8037 66.9532 36.5399 66.7315C34.2405 66.0742 32.2908 64.541 31.1099 62.4615C30.6299 61.6515 30.2099 60.8115 29.6899 60.0115C29.1719 59.2298 28.4924 58.5683 27.6972 58.0715C26.902 57.5747 26.0095 57.2542 25.0799 57.1315C23.2303 56.8095 21.3296 56.9539 19.5499 57.5515C18.0799 58.1215 16.4499 58.1215 14.9799 57.5515C14.1808 57.1995 13.4878 56.6444 12.9699 55.9415C11.5923 54.1343 9.56641 52.9331 7.31987 52.5915C6.84987 52.5115 6.38987 52.3915 5.92987 52.2915C6.05987 52.0615 6.37987 52.2915 6.49987 52.0115C8.56563 51.6524 10.6912 51.899 12.6199 52.7215C15.5892 53.8507 18.8661 53.872 21.8499 52.7815C23.6927 52.1762 25.5692 51.6787 27.4699 51.2915C30.012 50.7993 32.6458 51.3196 34.8099 52.7415C36.3499 53.7415 37.7599 54.8715 39.2699 55.8815C40.872 56.9363 42.8138 57.3462 44.7056 57.0291C46.5974 56.7119 48.2993 55.6911 49.4699 54.1715C49.7299 53.8015 50.0399 53.4815 50.3199 53.1215C52.0799 50.8715 51.9699 48.3615 51.1799 45.8515C50.7728 44.9785 50.0806 44.2701 49.2172 43.8429C48.3539 43.4158 47.3708 43.2954 46.4299 43.5015C46.2505 43.5636 46.0765 43.6405 45.9099 43.7315C45.6458 43.8477 45.4185 44.034 45.2528 44.2703C45.0871 44.5065 44.9893 44.7836 44.9699 45.0715C44.9778 45.347 45.0664 45.6141 45.2246 45.8398C45.3828 46.0655 45.6036 46.2399 45.8599 46.3415C47.2299 47.1515 47.2899 47.8615 46.0299 48.8815C44.5999 50.0415 43.2599 49.6415 42.0299 48.3715C40.8821 47.2785 40.2135 45.7758 40.1699 44.1915C40.1825 42.8047 40.7224 41.4747 41.6799 40.4715C43.1586 38.8423 45.1979 37.8316 47.3899 37.6415C49.3964 37.4519 51.4189 37.7575 53.2799 38.5315C53.6354 38.7079 54.0355 38.7745 54.429 38.7229C54.8226 38.6712 55.1919 38.5037 55.4899 38.2415C57.1091 36.8859 59.1125 36.0719 61.2184 35.9141C63.3243 35.7562 65.4266 36.2624 67.2299 37.3615C68.336 38.0127 69.2707 38.9187 69.956 40.0041C70.6413 41.0894 71.0575 42.3228 71.1699 43.6015C71.3448 44.842 71.3448 46.1009 71.1699 47.3415C71.0479 48.2306 70.6449 49.0575 70.0199 49.7015C68.4417 51.4182 66.4046 52.6467 64.1499 53.2415C63.2775 53.4771 62.3592 53.484 61.4835 53.2615C60.6077 53.0391 59.804 52.5948 59.1499 51.9715C58.7002 51.5751 58.3648 51.0656 58.1785 50.4959C57.9921 49.9262 57.9615 49.317 58.0899 48.7315C58.1868 48.1167 58.4158 47.5302 58.7611 47.0123C59.1063 46.4944 59.5597 46.0575 60.0899 45.7315C60.2033 45.6447 60.3421 45.5977 60.4849 45.5977C60.6277 45.5977 60.7665 45.6447 60.8799 45.7315C61.1399 45.9115 61.0199 46.1515 60.9399 46.3715C60.9086 46.4601 60.8819 46.5502 60.8599 46.6415C60.7077 46.967 60.6673 47.3337 60.7451 47.6846C60.8228 48.0354 61.0144 48.3507 61.2899 48.5815C61.6405 48.7837 62.0443 48.8748 62.4478 48.8426C62.8514 48.8105 63.2356 48.6567 63.5499 48.4015C63.991 48.0358 64.3319 47.564 64.5406 47.0304C64.7493 46.4968 64.819 45.9189 64.743 45.351C64.667 44.7831 64.4479 44.2438 64.1062 43.7838C63.7646 43.3239 63.3116 42.9583 62.7899 42.7215C61.8018 42.3 60.7104 42.1833 59.6556 42.3864C58.6008 42.5895 57.6307 43.1032 56.8699 43.8615C55.6416 44.735 54.7993 46.0504 54.5199 47.5315C54.1892 49.3977 54.5822 51.3197 55.6189 52.9064C56.6556 54.493 58.258 55.6248 60.0999 56.0715C62.0771 56.6696 64.1829 56.6989 66.176 56.156C68.1692 55.613 69.9691 54.5198 71.3699 53.0015C71.7599 52.6115 71.9499 52.4915 72.2599 53.0915C73.0137 54.5095 73.9481 55.8238 75.0399 57.0015C76.3635 58.4315 78.0553 59.4695 79.9299 60.0015C81.5814 60.5136 83.2923 60.8094 85.0199 60.8815C87.0949 60.9211 89.1502 60.4724 91.0199 59.5715C95.0199 57.7615 97.1099 54.4815 97.8699 50.2915C98.2469 48.2134 98.0921 46.0737 97.4199 44.0715C97.0239 42.8072 96.246 41.6966 95.193 40.8925C94.1401 40.0885 92.8638 39.6305 91.5399 39.5815C89.4422 39.3642 87.3318 39.8496 85.5399 40.9615C84.8797 41.2961 84.3049 41.7774 83.8594 42.3684C83.4139 42.9595 83.1097 43.6447 82.9699 44.3715C82.6799 46.4215 83.5799 49.3715 86.2299 49.8315C86.7361 49.9522 87.265 49.9392 87.7647 49.7937C88.2644 49.6481 88.7176 49.3751 89.0799 49.0015C89.2695 48.8374 89.414 48.6275 89.4996 48.3918C89.5853 48.1561 89.6092 47.9024 89.5691 47.6549C89.529 47.4073 89.4262 47.1741 89.2706 46.9775C89.115 46.7809 88.9116 46.6273 88.6799 46.5315C88.4999 46.4315 88.2899 46.3715 88.0899 46.2815C87.5699 46.0015 86.9699 45.8915 86.9699 45.1015C86.9885 44.7215 87.119 44.3556 87.3449 44.0495C87.5709 43.7435 87.8822 43.5111 88.2399 43.3815C88.6888 43.2225 89.1658 43.1582 89.6408 43.1926C90.1158 43.227 90.5785 43.3594 90.9999 43.5815C93.3999 44.9115 94.6999 46.6615 94.5099 49.1515C94.2732 51.205 93.4544 53.148 92.1499 54.7515C90.3899 57.1515 86.5199 58.0315 83.6499 57.0315C81.7615 56.4 79.9631 55.5261 78.2999 54.4315C77.3881 53.7959 76.6308 52.9636 76.0838 51.996C75.5369 51.0285 75.2143 49.9504 75.1399 48.8415C74.8599 46.7015 75.0099 44.5415 74.7299 42.4115C74.6088 40.7747 73.9953 39.2129 72.9699 37.9315C72.4799 37.3615 71.8499 36.9315 71.3099 36.3915C70.3773 35.5662 69.5867 34.5932 68.9699 33.5115C68.4961 32.3911 68.3499 31.1594 68.5482 29.9593C68.7464 28.7592 69.281 27.6399 70.0899 26.7315C70.7112 26.1699 71.5041 25.8351 72.3399 25.7815C73.4894 25.5784 74.6714 25.664 75.7797 26.0305C76.8881 26.3971 77.888 27.0331 78.6899 27.8815C79.0424 28.2561 79.261 28.7369 79.3117 29.2488C79.3623 29.7607 79.2421 30.275 78.9699 30.7115C78.7381 31.1069 78.4062 31.4343 78.0078 31.6607C77.6093 31.8872 77.1582 32.0047 76.6999 32.0015C76.1899 32.0015 76.0799 31.6415 76.0299 31.2415C75.8999 30.1515 75.3499 29.5515 74.4899 29.5715C74.0064 29.6235 73.5553 29.8393 73.2115 30.1831C72.8677 30.5269 72.6519 30.978 72.5999 31.4615C72.4699 33.5115 73.9299 34.7715 75.8499 35.2515C77.7699 35.7315 79.4099 34.7315 80.8999 33.5915C81.4252 33.1878 81.8988 32.721 82.3099 32.2015C83.6999 30.4615 85.6799 29.6615 87.6599 28.8615C90.8899 27.5615 94.0299 28.0815 97.1099 29.3915C99.5835 30.3714 101.817 31.872 103.66 33.7915C104.08 34.2415 104.48 34.7115 104.91 35.1515C105.101 35.3956 105.372 35.5652 105.675 35.631C105.978 35.6967 106.295 35.6544 106.57 35.5115C108.233 34.7328 110.067 34.3887 111.9 34.5115C113.004 34.5075 114.093 34.771 115.074 35.2795C116.054 35.788 116.897 36.5264 117.53 37.4315C117.752 37.7266 117.907 38.066 117.987 38.4265C118.066 38.7871 118.067 39.1605 117.99 39.5215C117.58 41.2315 116.82 42.7115 114.99 43.3415C114.08 43.6515 113.5 43.3415 113.49 42.5115C113.48 41.6815 113.44 40.9615 112.49 40.6615C112.024 40.5442 111.533 40.5778 111.087 40.7576C110.641 40.9373 110.264 41.2538 110.01 41.6615C108.01 44.6615 109.89 47.0415 112.42 47.7915C113.891 48.2072 115.46 48.1157 116.873 47.5316C118.286 46.9475 119.461 45.9048 120.21 44.5715C120.73 43.6415 121.21 42.7115 121.69 41.7415C121.922 41.2595 122.283 40.8511 122.733 40.5617C123.184 40.2723 123.705 40.113 124.24 40.1015C125.879 39.9465 127.528 40.244 129.01 40.9615C130.74 41.7977 132.638 42.2319 134.56 42.2315C135.634 42.2238 136.684 42.5483 137.567 43.1605C138.449 43.7728 139.121 44.6428 139.49 45.6515C140.019 47.0582 140.707 48.4001 141.54 49.6515C142.051 50.3654 142.727 50.9449 143.511 51.3402C144.294 51.7356 145.162 51.935 146.04 51.9215C147.981 51.8979 149.912 51.6359 151.79 51.1415C152.981 50.8289 154.221 50.7564 155.44 50.9281C156.659 51.0997 157.832 51.5122 158.89 52.1415C160.361 52.9629 162.006 53.4222 163.69 53.4815V53.7515C161.675 54.2382 159.572 54.2314 157.56 53.7315Z" fill="#FFEEDC"/>
<path d="M6.5407 52.0015C6.4207 52.2315 6.1007 52.0515 5.9707 52.2815C6.0207 51.9015 6.4007 52.2115 6.5407 52.0015Z" fill="#FFEEDC"/>
<path d="M163.73 53.7016V53.4316C163.751 53.4475 163.768 53.4679 163.78 53.4914C163.791 53.5148 163.797 53.5405 163.797 53.5666C163.797 53.5928 163.791 53.6185 163.78 53.6419C163.768 53.6653 163.751 53.6858 163.73 53.7016Z" fill="#FFEEDC"/>
<path d="M6.54063 52.0015C6.42063 52.2315 6.10062 52.0515 5.97062 52.2815C5.67065 52.2822 5.37884 52.1838 5.14062 52.0015H6.54063Z" fill="#FFEEDC"/>
<path d="M164.44 53.5316L163.73 53.7016V53.4316H164.42L164.44 53.5316Z" fill="#FFEEDC"/>
</svg>
