<svg width="421" height="299" viewBox="0 0 421 299" fill="none" xmlns="http://www.w3.org/2000/svg">
<path d="M413.2 6.75H7.40991C6.66433 6.75 6.06006 7.35441 6.06006 8.1V182.55C6.06006 183.296 6.66433 183.9 7.40991 183.9H413.2C413.946 183.9 414.55 183.296 414.55 182.55V8.1C414.55 7.35441 413.946 6.75 413.2 6.75Z" stroke="black" stroke-width="12" stroke-linecap="round" stroke-linejoin="round"/>
<path d="M245.2 52.29H168.22" stroke="black" stroke-width="12" stroke-linecap="round" stroke-linejoin="round"/>
<path d="M34.1299 114.37H380.95" stroke="black" stroke-width="12" stroke-linecap="round" stroke-linejoin="round"/>
<path d="M34.1299 144.99H380.95" stroke="black" stroke-width="12" stroke-linecap="round" stroke-linejoin="round"/>
<path d="M134.28 218.82L127.82 226.28C120.49 234.74 121.4 247.54 129.86 254.87C130.5 255.43 131.18 255.94 131.89 256.42C141.2 262.63 143.72 275.21 137.51 284.52C137.24 284.92 136.96 285.32 136.66 285.7L131.39 292.5" stroke="black" stroke-width="12" stroke-linecap="round" stroke-linejoin="round"/>
<path d="M218.95 205.25L212.48 212.71C205.15 221.17 206.07 233.97 214.52 241.3C215.16 241.86 215.84 242.37 216.55 242.84C225.86 249.05 228.38 261.63 222.17 270.94C221.9 271.34 221.62 271.74 221.32 272.12L216.05 278.92" stroke="black" stroke-width="12" stroke-linecap="round" stroke-linejoin="round"/>
<path d="M290.05 218.82L283.59 226.28C276.26 234.73 277.17 247.53 285.62 254.86C286.27 255.42 286.95 255.94 287.66 256.41C296.97 262.62 299.49 275.2 293.28 284.51C293.01 284.91 292.73 285.31 292.43 285.69L287.16 292.49" stroke="black" stroke-width="12" stroke-linecap="round" stroke-linejoin="round"/>
</svg>
