<svg width="363" height="363" viewBox="0 0 363 363" fill="none" xmlns="http://www.w3.org/2000/svg">
<path d="M181.52 334.58C109.5 334.58 50.9199 276 50.9199 203.98C50.9199 131.96 109.5 73.3799 181.52 73.3799C253.54 73.3799 312.12 131.96 312.12 203.98C312.12 276 253.54 334.58 181.52 334.58Z" stroke="black" stroke-width="12" stroke-linecap="round" stroke-linejoin="round"/>
<path d="M181.52 138.67V203.97H246.82" stroke="black" stroke-width="12" stroke-linecap="round" stroke-linejoin="round"/>
<path d="M94.4502 356.34L127.79 323" stroke="black" stroke-width="12" stroke-linecap="round" stroke-linejoin="round"/>
<path d="M235.25 323.01L268.59 356.35" stroke="black" stroke-width="12" stroke-linecap="round" stroke-linejoin="round"/>
<path d="M118.14 25.75C92.6399 0.25 51.29 0.25 25.79 25.75C0.290039 51.25 0.290039 92.6 25.79 118.1L118.14 25.75Z" stroke="black" stroke-width="12" stroke-linecap="round" stroke-linejoin="round"/>
<path d="M244.91 25.75C270.41 0.25 311.76 0.25 337.26 25.75C362.76 51.25 362.76 92.6 337.26 118.1L244.91 25.75Z" stroke="black" stroke-width="12" stroke-linecap="round" stroke-linejoin="round"/>
</svg>
