<svg width="269" height="363" viewBox="0 0 269 363" fill="none" xmlns="http://www.w3.org/2000/svg">
<path d="M152.48 141.23V168H116.84V141.23" stroke="black" stroke-width="12" stroke-linecap="round" stroke-linejoin="round"/>
<path d="M174.74 242.94H199.27V277.71H174.74" stroke="black" stroke-width="12" stroke-linecap="round" stroke-linejoin="round"/>
<path d="M151.75 310.11H117.78C105.87 310.11 96.21 300.45 96.21 288.54V230.16H173.32V288.54C173.32 300.45 163.66 310.11 151.75 310.11Z" stroke="black" stroke-width="12" stroke-linecap="round" stroke-linejoin="round"/>
<path d="M262.53 356.93H6.79004V324.69C6.79004 316.64 13.3201 310.11 21.3701 310.11H247.95C256.01 310.11 262.53 316.64 262.53 324.69V356.93Z" stroke="black" stroke-width="12" stroke-linecap="round" stroke-linejoin="round"/>
<path d="M232.38 99.7703V310.11H36.9302V98.6802" stroke="black" stroke-width="12" stroke-linecap="round" stroke-linejoin="round"/>
<path d="M201.2 109.65H68.1099C44.6399 109.65 25.6099 90.6201 25.6099 67.1401V6.49023H243.71V67.1401C243.71 90.6201 224.68 109.65 201.21 109.65H201.2Z" stroke="black" stroke-width="12" stroke-linecap="round" stroke-linejoin="round"/>
<path d="M19.8198 6.49023H249.49" stroke="black" stroke-width="12" stroke-linecap="round" stroke-linejoin="round"/>
<path d="M177.25 138.281H92.0698V109.65H177.25V138.281Z" stroke="black" stroke-width="12" stroke-linecap="round" stroke-linejoin="round"/>
<path d="M83.7798 63.6499C83.7798 71.5099 77.4098 77.8799 69.5498 77.8799C61.6898 77.8799 55.3198 71.5099 55.3198 63.6499C55.3198 55.7899 61.6898 49.4199 69.5498 49.4199C77.4098 49.4199 83.7798 55.7899 83.7798 63.6499Z" stroke="black" stroke-width="12" stroke-linecap="round" stroke-linejoin="round"/>
<path d="M172.89 50.9199H213.99" stroke="black" stroke-width="12" stroke-linecap="round" stroke-linejoin="round"/>
<path d="M172.89 76.3799H213.99" stroke="black" stroke-width="12" stroke-linecap="round" stroke-linejoin="round"/>
</svg>
