<svg width="393" height="314" viewBox="0 0 393 314" fill="none" xmlns="http://www.w3.org/2000/svg">
<path d="M386.91 140.67H6.41992" stroke="black" stroke-width="12" stroke-linecap="round" stroke-linejoin="round"/>
<path d="M23.8599 140.67V307.08" stroke="black" stroke-width="12" stroke-linecap="round" stroke-linejoin="round"/>
<path d="M369.47 140.67V307.08" stroke="black" stroke-width="12" stroke-linecap="round" stroke-linejoin="round"/>
<path d="M242.06 140.67V307.08" stroke="black" stroke-width="12" stroke-linecap="round" stroke-linejoin="round"/>
<path d="M242.06 185.1H369.47" stroke="black" stroke-width="12" stroke-linecap="round" stroke-linejoin="round"/>
<path d="M242.06 229.529H369.47" stroke="black" stroke-width="12" stroke-linecap="round" stroke-linejoin="round"/>
<path d="M58.6201 91.4697H207.3" stroke="black" stroke-width="10" stroke-linecap="round" stroke-linejoin="round"/>
<path d="M64.5298 140.67H116.8" stroke="black" stroke-width="12" stroke-linecap="round" stroke-linejoin="round"/>
<path d="M145.3 114.42V140.67" stroke="black" stroke-width="10" stroke-linecap="round" stroke-linejoin="round"/>
<path d="M120.62 114.42V140.67" stroke="black" stroke-width="10" stroke-linecap="round" stroke-linejoin="round"/>
<path d="M320.44 70.3896H366.48C368.14 70.3896 369.48 71.7296 369.48 73.3896V140.67H317.44V73.3896C317.44 71.7296 318.78 70.3896 320.44 70.3896Z" stroke="black" stroke-width="10" stroke-linecap="round" stroke-linejoin="round"/>
<path d="M343.46 70.3896V140.67" stroke="black" stroke-width="10" stroke-linecap="round" stroke-linejoin="round"/>
<path d="M204.31 5.88965H61.6201C59.9633 5.88965 58.6201 7.23279 58.6201 8.88965V111.41C58.6201 113.067 59.9633 114.41 61.6201 114.41H204.31C205.967 114.41 207.31 113.067 207.31 111.41V8.88965C207.31 7.23279 205.967 5.88965 204.31 5.88965Z" stroke="black" stroke-width="10" stroke-linecap="round" stroke-linejoin="round"/>
<path d="M302.8 207.31H308.73" stroke="black" stroke-width="12" stroke-linecap="round" stroke-linejoin="round"/>
<path d="M302.8 162.88H308.73" stroke="black" stroke-width="12" stroke-linecap="round" stroke-linejoin="round"/>
</svg>
