<svg width="429" height="429" viewBox="0 0 429 429" fill="none" xmlns="http://www.w3.org/2000/svg">
<path d="M396.46 58H422.34" stroke="black" stroke-width="12" stroke-linecap="round" stroke-linejoin="round"/>
<path d="M396.46 109.77H422.34" stroke="black" stroke-width="12" stroke-linecap="round" stroke-linejoin="round"/>
<path d="M396.46 161.53H422.34" stroke="black" stroke-width="12" stroke-linecap="round" stroke-linejoin="round"/>
<path d="M161.78 109.77C161.78 138.36 138.6 161.54 110.01 161.54C81.4198 161.54 58.2402 138.36 58.2402 109.77C58.2402 81.18 81.4198 58 110.01 58C138.6 58 161.78 81.18 161.78 109.77Z" stroke="black" stroke-width="12" stroke-linecap="round" stroke-linejoin="round"/>
<path d="M292.92 166.71V52.8198" stroke="black" stroke-width="12" stroke-linecap="round" stroke-linejoin="round"/>
<path d="M135.9 210.04V289.67C135.9 305.15 123.35 317.7 107.87 317.7C94.1701 317.7 82.48 307.8 80.23 294.28L60.46 200.69C28.3 183.12 6.47998 148.99 6.47998 109.76C6.47998 52.5798 52.83 6.21973 110.02 6.21973C141.56 6.21973 169.81 20.3198 188.8 42.5698L344.7 57.9897V161.53L188.8 176.95C175.19 192.89 156.83 204.65 135.9 210.04Z" stroke="black" stroke-width="12" stroke-linecap="round" stroke-linejoin="round"/>
<path d="M135.9 265.93H161.78" stroke="black" stroke-width="12" stroke-linecap="round" stroke-linejoin="round"/>
<path d="M110.01 317.7V370.33C110.01 398.92 133.19 422.1 161.78 422.1C190.37 422.1 213.55 398.92 213.55 370.33V343.58C213.55 329.29 225.14 317.7 239.43 317.7C253.72 317.7 265.31 329.29 265.31 343.58V422.09" stroke="black" stroke-width="12" stroke-linecap="round" stroke-linejoin="round"/>
</svg>
