<svg width="444" height="406" viewBox="0 0 444 406" fill="none" xmlns="http://www.w3.org/2000/svg">
<path d="M101.61 244.65H6.22998V205.96H437.5V244.65H342.12" stroke="black" stroke-width="12" stroke-linecap="round" stroke-linejoin="round"/>
<path d="M25.75 244.65L51.7798 386.541C53.0598 393.521 57.6398 399.44 64.7998 399.44H241.38H378.92C386.07 399.44 390.66 393.521 391.94 386.541L417.97 244.65" stroke="black" stroke-width="12" stroke-linecap="round" stroke-linejoin="round"/>
<path d="M59.1602 205.96L221.86 354.29L384.56 205.96" stroke="black" stroke-width="12" stroke-linecap="round" stroke-linejoin="round"/>
<path d="M407.97 318.98H270.31M172.97 318.98H35.7598" stroke="black" stroke-width="12" stroke-linecap="round" stroke-linejoin="round"/>
<path d="M316.27 399.44C321.01 399.44 324.04 393.521 324.89 386.541L342.13 244.65M127.47 399.44C122.73 399.44 119.7 393.521 118.85 386.541L101.61 244.65M180.17 399.44C178.27 399.44 177.05 393.521 176.71 386.541L172.97 309.71M263.56 399.43C265.46 399.43 266.68 393.511 267.02 386.531L270.76 309.7" stroke="black" stroke-width="12" stroke-linecap="round" stroke-linejoin="round"/>
<path d="M423.61 205.96V83.4202C423.61 40.8502 388.47 6.03027 345.51 6.03027H98.2002C55.2502 6.03027 20.1001 40.8602 20.1001 83.4202V205.96" stroke="black" stroke-width="12" stroke-linecap="round" stroke-linejoin="round"/>
<path d="M205.27 205.96C191.22 195.26 181.89 177.11 181.89 159.38C181.89 131.8 202.77 110.69 232.28 115.68C261.79 110.69 282.67 131.8 282.67 159.38C282.67 177.11 273.35 195.26 259.29 205.96" stroke="black" stroke-width="12" stroke-linecap="round" stroke-linejoin="round"/>
<path d="M232.28 115.68C232.28 96.1799 244.01 82.7498 264.73 82.8798C271.24 96.1398 263.52 113.42 252.18 116.41" stroke="black" stroke-width="12" stroke-linecap="round" stroke-linejoin="round"/>
<path d="M213.33 87.2202C222.8 95.7302 230.15 105.73 232.28 115.68" stroke="black" stroke-width="12" stroke-linecap="round" stroke-linejoin="round"/>
<path d="M350.23 205.96C369.53 184.74 366.98 154.73 341.71 139.53C323.63 117.68 295.79 118.79 277.42 136.95" stroke="black" stroke-width="12" stroke-linecap="round" stroke-linejoin="round"/>
<path d="M341.71 139.52C350.44 128.41 357.51 105.99 338.9 93.6699C323.39 99.7299 320.18 115.68 325.26 126.71" stroke="black" stroke-width="12" stroke-linecap="round" stroke-linejoin="round"/>
<path d="M370.09 116.601L341.71 139.521" stroke="black" stroke-width="12" stroke-linecap="round" stroke-linejoin="round"/>
<path d="M90.92 205.96C88.84 205.33 86.8201 204.17 84.9401 202.6C72.3601 192.15 75.0402 172.2 89.6202 164.73L89.9 164.59L188.3 185.26" stroke="black" stroke-width="12" stroke-linecap="round" stroke-linejoin="round"/>
<path d="M89.9001 164.59C84.1201 161.2 80.1403 152.98 79.1803 144.44C78.2103 135.73 84.0503 127.7 92.6403 125.64C96.6203 124.68 100.8 125.12 104.49 126.88L182.09 163.83" stroke="black" stroke-width="12" stroke-linecap="round" stroke-linejoin="round"/>
<path d="M98.7798 124.16C93.9898 119.38 92.2499 110.26 93.5899 101.67C94.9199 93.1299 102.64 87.0099 111.35 87.1599C115.44 87.2299 119.38 88.7001 122.5 91.3201L184.43 143.35" stroke="black" stroke-width="12" stroke-linecap="round" stroke-linejoin="round"/>
</svg>
