<svg width="398" height="382" viewBox="0 0 398 382" fill="none" xmlns="http://www.w3.org/2000/svg">
<path d="M13.27 312.33C8.62002 303.66 6.18994 293.97 6.18994 284.13V142.64H391.09V284.13C391.09 293.97 388.66 303.66 384.01 312.33C373.62 331.7 353.42 343.78 331.45 343.78H65.8501C43.8701 343.78 23.67 331.69 13.29 312.33H13.27Z" stroke="black" stroke-width="12" stroke-linecap="round" stroke-linejoin="round"/>
<path d="M135.32 6.42969C135.32 26.6297 122.37 26.6298 122.37 46.8198C122.37 67.0098 135.32 67.0197 135.32 87.2197" stroke="black" stroke-width="12" stroke-linecap="round" stroke-linejoin="round"/>
<path d="M205.11 6.42969C205.11 26.6297 192.16 26.6298 192.16 46.8198C192.16 67.0098 205.11 67.0197 205.11 87.2197" stroke="black" stroke-width="12" stroke-linecap="round" stroke-linejoin="round"/>
<path d="M274.9 6.42969C274.9 26.6297 261.95 26.6298 261.95 46.8198C261.95 67.0098 274.9 67.0197 274.9 87.2197" stroke="black" stroke-width="12" stroke-linecap="round" stroke-linejoin="round"/>
<path d="M148.56 190.57H391.09" stroke="black" stroke-width="12" stroke-linecap="round" stroke-linejoin="round"/>
<path d="M6.18994 190.57H66.1499" stroke="black" stroke-width="12" stroke-linecap="round" stroke-linejoin="round"/>
<path d="M148.56 262.179H66.1499V142.649H148.56V262.179Z" stroke="black" stroke-width="12" stroke-linecap="round" stroke-linejoin="round"/>
<path d="M62.0801 375.83V343.78" stroke="black" stroke-width="12" stroke-linecap="round" stroke-linejoin="round"/>
<path d="M335.19 375.83V343.78" stroke="black" stroke-width="12" stroke-linecap="round" stroke-linejoin="round"/>
</svg>
