<svg width="376" height="376" viewBox="0 0 376 376" fill="none" xmlns="http://www.w3.org/2000/svg">
<path d="M188.32 256.9H99.8398C91.9498 256.9 85.5498 263.3 85.5498 271.19V291.05C85.5498 298.94 91.9498 305.34 99.8398 305.34H188.32C196.21 305.34 202.61 298.94 202.61 291.05V271.19C202.61 263.3 196.21 256.9 188.32 256.9Z" stroke="black" stroke-width="12" stroke-linecap="round" stroke-linejoin="round"/>
<path d="M216.9 256.9H305.38C313.27 256.9 319.67 263.3 319.67 271.19V291.05C319.67 298.94 313.27 305.34 305.38 305.34H216.9C209.01 305.34 202.61 298.94 202.61 291.05V271.19C202.61 263.3 209.01 256.9 216.9 256.9Z" stroke="black" stroke-width="12" stroke-linecap="round" stroke-linejoin="round"/>
<path d="M71.9399 338.43V355.14C71.9399 363.3 78.55 369.91 86.71 369.91C94.87 369.91 101.48 363.3 101.48 355.14V338.43" stroke="black" stroke-width="12" stroke-linecap="round" stroke-linejoin="round"/>
<path d="M333.28 338.43V355.14C333.28 363.3 326.67 369.91 318.51 369.91C310.35 369.91 303.74 363.3 303.74 355.14V338.43" stroke="black" stroke-width="12" stroke-linecap="round" stroke-linejoin="round"/>
<path d="M349.2 313.32C349.2 326.78 338.29 337.69 324.83 337.69H80.3901C66.9301 337.69 56.0203 326.78 56.0203 313.32V247.41C44.4803 245.24 35.7402 235.11 35.7402 222.93C35.7402 209.17 46.8901 198.02 60.6501 198.02C74.4101 198.02 85.5603 209.17 85.5603 222.93V305.33H319.67V222.93C319.67 209.17 330.82 198.02 344.58 198.02C358.34 198.02 369.49 209.17 369.49 222.93C369.49 235.1 360.76 245.24 349.21 247.41V313.32H349.2Z" stroke="black" stroke-width="12" stroke-linecap="round" stroke-linejoin="round"/>
<path d="M85.5498 281.08V218.39C85.5498 202.59 98.3597 189.79 114.15 189.79H174C189.8 189.79 202.6 202.6 202.6 218.39V281.08" stroke="black" stroke-width="12" stroke-linecap="round" stroke-linejoin="round"/>
<path d="M319.67 281.08V218.39C319.67 202.59 306.86 189.79 291.07 189.79H231.22C215.42 189.79 202.62 202.6 202.62 218.39V281.08" stroke="black" stroke-width="12" stroke-linecap="round" stroke-linejoin="round"/>
<path d="M315.16 115.27C345.16 115.27 369.48 90.9501 369.48 60.95C369.48 30.9498 345.16 6.62988 315.16 6.62988C285.16 6.62988 260.84 30.9498 260.84 60.95C260.84 90.9501 285.16 115.27 315.16 115.27Z" stroke="black" stroke-width="12" stroke-linecap="round" stroke-linejoin="round"/>
<path d="M315.16 37.3301V60.95L302.34 68.3701" stroke="black" stroke-width="12" stroke-linecap="round" stroke-linejoin="round"/>
<path d="M93.3301 93.21V58H64.6599C32.3799 58 6.20996 84.17 6.20996 116.45V369.9H86.71" stroke="black" stroke-width="12" stroke-linecap="round" stroke-linejoin="round"/>
<path d="M51.8604 137.34C51.8604 114.44 70.4303 95.8701 93.3303 95.8701C116.23 95.8701 134.8 114.44 134.8 137.34H51.8604Z" stroke="black" stroke-width="12" stroke-linecap="round" stroke-linejoin="round"/>
</svg>
