<svg width="424" height="425" viewBox="0 0 424 425" fill="none" xmlns="http://www.w3.org/2000/svg">
<path d="M212.31 418.13C325.887 418.13 417.96 326.057 417.96 212.48C417.96 98.9027 325.887 6.83008 212.31 6.83008C98.7327 6.83008 6.66016 98.9027 6.66016 212.48C6.66016 326.057 98.7327 418.13 212.31 418.13Z" stroke="black" stroke-width="12" stroke-linecap="round" stroke-linejoin="round"/>
<path d="M67.0801 66.8896L358.67 356.94" stroke="black" stroke-width="12" stroke-linecap="round" stroke-linejoin="round"/>
<path d="M333.79 192.12H90.8301C87.6379 192.12 85.0498 194.708 85.0498 197.9V236.21C85.0498 239.402 87.6379 241.99 90.8301 241.99H333.79C336.982 241.99 339.57 239.402 339.57 236.21V197.9C339.57 194.708 336.982 192.12 333.79 192.12Z" stroke="black" stroke-width="12" stroke-linecap="round" stroke-linejoin="round"/>
<path d="M289.7 192.12H333.79C336.98 192.12 339.57 194.71 339.57 197.9V236.21C339.57 239.4 336.98 241.99 333.79 241.99H289.7V192.12Z" stroke="black" stroke-width="12" stroke-linecap="round" stroke-linejoin="round"/>
<path d="M304.73 106.76L300.7 112.96C296.13 119.99 296.7 130.63 301.97 136.73C302.37 137.19 302.79 137.62 303.23 138.01C309.03 143.17 310.6 153.63 306.73 161.37C306.56 161.71 306.38 162.03 306.2 162.35L302.91 168" stroke="black" stroke-width="12" stroke-linecap="round" stroke-linejoin="round"/>
<path d="M335.43 107.44L331.41 113.64C326.84 120.67 327.41 131.31 332.68 137.4C333.08 137.87 333.51 138.3 333.95 138.69C339.75 143.85 341.32 154.31 337.45 162.05C337.28 162.39 337.1 162.71 336.92 163.03L333.63 168.68" stroke="black" stroke-width="12" stroke-linecap="round" stroke-linejoin="round"/>
</svg>
