<svg width="376" height="376" viewBox="0 0 376 376" fill="none" xmlns="http://www.w3.org/2000/svg">
<path d="M177.07 188.689C177.07 182.299 182.37 177.149 188.81 177.399C194.63 177.619 199.44 182.439 199.66 188.249C199.9 194.689 194.75 199.989 188.37 199.989C181.99 199.989 177.07 194.929 177.07 188.689Z" stroke="black" stroke-width="12" stroke-linecap="round" stroke-linejoin="round"/>
<path d="M222.28 188.689C222.28 182.299 227.58 177.149 234.02 177.399C239.84 177.619 244.65 182.439 244.87 188.249C245.11 194.689 239.96 199.989 233.58 199.989C227.2 199.989 222.28 194.929 222.28 188.689Z" stroke="black" stroke-width="12" stroke-linecap="round" stroke-linejoin="round"/>
<path d="M267.49 188.689C267.49 182.299 272.79 177.149 279.23 177.399C285.05 177.619 289.86 182.439 290.08 188.249C290.32 194.689 285.17 199.989 278.79 199.989C272.41 199.989 267.49 194.929 267.49 188.689Z" stroke="black" stroke-width="12" stroke-linecap="round" stroke-linejoin="round"/>
<path d="M312.7 188.689C312.7 182.299 318 177.149 324.44 177.399C330.26 177.619 335.07 182.439 335.29 188.249C335.53 194.689 330.38 199.989 324 199.989C317.62 199.989 312.7 194.929 312.7 188.689Z" stroke="black" stroke-width="12" stroke-linecap="round" stroke-linejoin="round"/>
<path d="M177.07 233.899C177.07 227.509 182.37 222.359 188.81 222.609C194.63 222.829 199.44 227.649 199.66 233.459C199.9 239.899 194.75 245.199 188.37 245.199C181.99 245.199 177.07 240.139 177.07 233.899Z" stroke="black" stroke-width="12" stroke-linecap="round" stroke-linejoin="round"/>
<path d="M222.28 233.899C222.28 227.509 227.58 222.359 234.02 222.609C239.84 222.829 244.65 227.649 244.87 233.459C245.11 239.899 239.96 245.199 233.58 245.199C227.2 245.199 222.28 240.139 222.28 233.899Z" stroke="black" stroke-width="12" stroke-linecap="round" stroke-linejoin="round"/>
<path d="M267.49 233.899C267.49 227.509 272.79 222.359 279.23 222.609C285.05 222.829 289.86 227.649 290.08 233.459C290.32 239.899 285.17 245.199 278.79 245.199C272.41 245.199 267.49 240.139 267.49 233.899Z" stroke="black" stroke-width="12" stroke-linecap="round" stroke-linejoin="round"/>
<path d="M177.07 279.1C177.07 272.71 182.37 267.56 188.81 267.81C194.63 268.03 199.44 272.85 199.66 278.66C199.9 285.1 194.75 290.4 188.37 290.4C181.99 290.4 177.07 285.34 177.07 279.1Z" stroke="black" stroke-width="12" stroke-linecap="round" stroke-linejoin="round"/>
<path d="M222.28 279.1C222.28 272.71 227.58 267.56 234.02 267.81C239.84 268.03 244.65 272.85 244.87 278.66C245.11 285.1 239.96 290.4 233.58 290.4C227.2 290.4 222.28 285.34 222.28 279.1Z" stroke="black" stroke-width="12" stroke-linecap="round" stroke-linejoin="round"/>
<path d="M267.49 279.1C267.49 272.71 272.79 267.56 279.23 267.81C285.05 268.03 289.86 272.85 290.08 278.66C290.32 285.1 285.17 290.4 278.79 290.4C272.41 290.4 267.49 285.34 267.49 279.1Z" stroke="black" stroke-width="12" stroke-linecap="round" stroke-linejoin="round"/>
<path d="M143.17 53.0693H359.96C365.48 53.0693 369.96 57.5493 369.96 63.0693V314.309C369.96 319.829 365.48 324.309 359.96 324.309H16.7998C11.2798 324.309 6.7998 319.829 6.7998 314.309V63.0693C6.7998 57.5493 11.2798 53.0693 16.7998 53.0693H52.7598" stroke="black" stroke-width="12" stroke-linecap="round" stroke-linejoin="round"/>
<path d="M133.17 279.1H62.7598C57.2398 279.1 52.7598 274.62 52.7598 269.1V16.3496C52.7598 10.8296 57.2398 6.34961 62.7598 6.34961H133.17C138.69 6.34961 143.17 10.8296 143.17 16.3496V269.1C143.17 274.62 138.69 279.1 133.17 279.1Z" stroke="black" stroke-width="12" stroke-linecap="round" stroke-linejoin="round"/>
<path d="M188.38 324.31C188.38 350.07 166.83 370.81 140.77 369.45C116.64 368.2 97.9702 347.75 97.9702 323.59V279.1" stroke="black" stroke-width="12" stroke-linecap="round" stroke-linejoin="round"/>
<path d="M323.63 143.48H188.74C182.3 143.48 177.07 139 177.07 133.48V108.27C177.07 102.75 182.29 98.2695 188.74 98.2695H323.63C330.07 98.2695 335.3 102.75 335.3 108.27V133.48C335.3 139 330.08 143.48 323.63 143.48Z" stroke="black" stroke-width="12" stroke-linecap="round" stroke-linejoin="round"/>
<path d="M324 233.899V279.109" stroke="black" stroke-width="12" stroke-linecap="round" stroke-linejoin="round"/>
</svg>
