<svg width="350" height="365" viewBox="0 0 350 365" fill="none" xmlns="http://www.w3.org/2000/svg">
<path d="M250.6 68.1299V6.91992" stroke="black" stroke-width="12" stroke-linecap="round" stroke-linejoin="round"/>
<path d="M293.45 6.91992V68.1299" stroke="black" stroke-width="12" stroke-linecap="round" stroke-linejoin="round"/>
<path d="M241.42 6.91992H302.63" stroke="black" stroke-width="12" stroke-linecap="round" stroke-linejoin="round"/>
<path d="M106 185.95V199.72C106 205.64 101.2 210.43 95.29 210.43H55.5098C49.5898 210.43 44.7998 205.63 44.7998 199.72V185.95" stroke="black" stroke-width="12" stroke-linecap="round" stroke-linejoin="round"/>
<path d="M75.3999 210.44V253.28" stroke="black" stroke-width="12" stroke-linecap="round" stroke-linejoin="round"/>
<path d="M75.3999 19.1699V68.1399" stroke="black" stroke-width="12" stroke-linecap="round" stroke-linejoin="round"/>
<path d="M87.6401 19.1699H63.1602" stroke="black" stroke-width="12" stroke-linecap="round" stroke-linejoin="round"/>
<path d="M236.07 280.83V159.94H121.31V175.25C121.31 181.17 116.52 185.96 110.6 185.96H40.21C34.29 185.96 29.5 181.17 29.5 175.25V114.04C29.5 88.69 50.0602 68.1299 75.4102 68.1299H297.29C322.64 68.1299 343.2 88.69 343.2 114.04V233.81" stroke="black" stroke-width="12" stroke-linecap="round" stroke-linejoin="round"/>
<path d="M343.18 280.83V177.07" stroke="black" stroke-width="12" stroke-linecap="round" stroke-linejoin="round"/>
<path d="M132.51 280.83H343.18V358.86H6.52979V311.42C6.52979 294.52 20.2301 280.82 37.1401 280.82H132.51V280.83Z" stroke="black" stroke-width="12" stroke-linecap="round" stroke-linejoin="round"/>
<path d="M304.93 176.39C304.93 184.84 298.08 191.69 289.63 191.69C281.18 191.69 274.33 184.84 274.33 176.39C274.33 167.94 281.18 161.09 289.63 161.09C298.08 161.09 304.93 167.94 304.93 176.39Z" stroke="black" stroke-width="12" stroke-linecap="round" stroke-linejoin="round"/>
<path d="M304.93 237.98C304.93 246.43 298.08 253.28 289.63 253.28C281.18 253.28 274.33 246.43 274.33 237.98C274.33 229.53 281.18 222.68 289.63 222.68C298.08 222.68 304.93 229.53 304.93 237.98Z" stroke="black" stroke-width="12" stroke-linecap="round" stroke-linejoin="round"/>
<path d="M129.72 120.16V107.92" stroke="black" stroke-width="12" stroke-linecap="round" stroke-linejoin="round"/>
<path d="M178.69 120.16V107.92" stroke="black" stroke-width="12" stroke-linecap="round" stroke-linejoin="round"/>
<path d="M227.65 120.16V107.92" stroke="black" stroke-width="12" stroke-linecap="round" stroke-linejoin="round"/>
<path d="M250.6 43.6499H75.3999" stroke="black" stroke-width="12" stroke-linecap="round" stroke-linejoin="round"/>
</svg>
