<svg width="365" height="251" viewBox="0 0 365 251" fill="none" xmlns="http://www.w3.org/2000/svg">
<path d="M329.33 78.0396V36.3795C329.33 19.8895 315.96 6.51953 299.47 6.51953H65.8301C49.3401 6.51953 35.9702 19.8895 35.9702 36.3795V78.0396" stroke="black" stroke-width="12" stroke-linecap="round" stroke-linejoin="round"/>
<path d="M6.52002 207.36V105.34C6.52002 90.2697 18.7401 78.0498 33.8101 78.0498C48.8801 78.0498 61.1001 90.2697 61.1001 105.34V160.93H299.62V105.34C299.62 90.2697 311.84 78.0498 326.91 78.0498H330.95C346.02 78.0498 358.24 90.2697 358.24 105.34V207.36C358.24 215.2 351.88 221.56 344.04 221.56H20.73C12.89 221.56 6.52979 215.2 6.52979 207.36H6.52002Z" stroke="black" stroke-width="12" stroke-linecap="round" stroke-linejoin="round"/>
<path d="M329.33 221.56V244.53" stroke="black" stroke-width="12" stroke-linecap="round" stroke-linejoin="round"/>
<path d="M35.96 221.56V244.53" stroke="black" stroke-width="12" stroke-linecap="round" stroke-linejoin="round"/>
<path d="M231.54 6.51953V134.939" stroke="black" stroke-width="12" stroke-linecap="round" stroke-linejoin="round"/>
<path d="M133.73 6.51953V134.939" stroke="black" stroke-width="12" stroke-linecap="round" stroke-linejoin="round"/>
<path d="M299.62 134.939H61.0898" stroke="black" stroke-width="12" stroke-linecap="round" stroke-linejoin="round"/>
</svg>
