<svg width="346" height="293" viewBox="0 0 346 293" fill="none" xmlns="http://www.w3.org/2000/svg">
<path d="M185.371 172.17C209.434 172.17 228.941 152.663 228.941 128.6C228.941 104.537 209.434 85.0298 185.371 85.0298C161.308 85.0298 141.801 104.537 141.801 128.6C141.801 152.663 161.308 172.17 185.371 172.17Z" stroke="black" stroke-width="12" stroke-linecap="round" stroke-linejoin="round"/>
<path d="M185.37 139.85C191.583 139.85 196.62 134.813 196.62 128.6C196.62 122.386 191.583 117.35 185.37 117.35C179.157 117.35 174.12 122.386 174.12 128.6C174.12 134.813 179.157 139.85 185.37 139.85Z" fill="black"/>
<path d="M119.811 128.6H141.801" stroke="black" stroke-width="12" stroke-linecap="round" stroke-linejoin="round"/>
<path d="M139.011 174.95L154.561 159.41" stroke="black" stroke-width="12" stroke-linecap="round" stroke-linejoin="round"/>
<path d="M185.37 194.15V172.17" stroke="black" stroke-width="12" stroke-linecap="round" stroke-linejoin="round"/>
<path d="M231.721 174.95L216.171 159.41" stroke="black" stroke-width="12" stroke-linecap="round" stroke-linejoin="round"/>
<path d="M250.921 128.6H228.94" stroke="black" stroke-width="12" stroke-linecap="round" stroke-linejoin="round"/>
<path d="M231.721 82.25L216.171 97.79" stroke="black" stroke-width="12" stroke-linecap="round" stroke-linejoin="round"/>
<path d="M185.37 63.0498V85.0298" stroke="black" stroke-width="12" stroke-linecap="round" stroke-linejoin="round"/>
<path d="M139.011 82.25L154.561 97.79" stroke="black" stroke-width="12" stroke-linecap="round" stroke-linejoin="round"/>
<path d="M6.08008 16.1299L6.08008 241.08C6.08008 246.652 10.5975 251.17 16.17 251.17L329.65 251.17C335.223 251.17 339.74 246.652 339.74 241.08V16.1299C339.74 10.5573 335.223 6.03992 329.65 6.03992L16.17 6.03992C10.5975 6.03992 6.08008 10.5573 6.08008 16.1299Z" stroke="black" stroke-width="12" stroke-linecap="round" stroke-linejoin="round"/>
<path d="M43.3701 251.16V286.09" stroke="black" stroke-width="12" stroke-linecap="round" stroke-linejoin="round"/>
<path d="M302.45 251.16V286.09" stroke="black" stroke-width="12" stroke-linecap="round" stroke-linejoin="round"/>
<path d="M6.08008 76.3501H34.7601" stroke="black" stroke-width="12" stroke-linecap="round" stroke-linejoin="round"/>
<path d="M6.08008 180.85H34.7601" stroke="black" stroke-width="12" stroke-linecap="round" stroke-linejoin="round"/>
</svg>
