<svg width="298" height="446" viewBox="0 0 298 446" fill="none" xmlns="http://www.w3.org/2000/svg">
<path d="M187.79 48.6599C190.11 39.4999 195.17 30.9599 202.66 24.5999C217.72 11.8299 266.95 8.45975 285.65 6.95975C289.06 6.67975 291.73 9.82995 290.9 13.1599C286.36 31.3599 275 79.3797 259.94 92.1497" stroke="black" stroke-width="12" stroke-linecap="round" stroke-linejoin="round"/>
<path d="M257.82 35.8799L221.7 66.5098" stroke="black" stroke-width="12" stroke-linecap="round" stroke-linejoin="round"/>
<path d="M235.04 37.3198L233.82 52.2002" stroke="black" stroke-width="12" stroke-linecap="round" stroke-linejoin="round"/>
<path d="M252.68 58.1201L237.8 56.8999" stroke="black" stroke-width="12" stroke-linecap="round" stroke-linejoin="round"/>
<path d="M221.94 77.5801C228.5 77.8601 235.04 79.5099 241.07 82.6299C258.6 91.7099 280.42 135.97 288.91 152.69C290.46 155.74 288.56 159.41 285.17 159.9C271.42 161.91 241.11 166.67 219.19 165.32" stroke="black" stroke-width="12" stroke-linecap="round" stroke-linejoin="round"/>
<path d="M251.57 137.94L219.96 121.57" stroke="black" stroke-width="12" stroke-linecap="round" stroke-linejoin="round"/>
<path d="M241.59 117.42L227.36 121.94" stroke="black" stroke-width="12" stroke-linecap="round" stroke-linejoin="round"/>
<path d="M230.36 145.75L224.53 127.4" stroke="black" stroke-width="12" stroke-linecap="round" stroke-linejoin="round"/>
<path d="M91.5296 288.45L57.5198 294.12C51.9998 295.04 46.7899 291.31 45.8699 285.8L40.2 251.79C39.28 246.27 43.0098 241.06 48.5198 240.14L82.5296 234.47C88.0496 233.55 93.26 237.28 94.18 242.79L99.8499 276.8C100.77 282.32 97.0396 287.53 91.5296 288.45Z" stroke="black" stroke-width="12" stroke-linecap="round" stroke-linejoin="round"/>
<path d="M163.23 338.81L145.1 356.94C141.14 360.89 134.73 360.89 130.78 356.94L112.65 338.81C108.7 334.86 108.7 328.44 112.65 324.49L130.78 306.36C134.74 302.4 141.15 302.4 145.1 306.36L163.23 324.49C167.19 328.44 167.19 334.86 163.23 338.81Z" stroke="black" stroke-width="12" stroke-linecap="round" stroke-linejoin="round"/>
<path d="M174.75 228.9L176.34 230.49C180.3 234.44 180.3 240.86 176.34 244.81L156.36 264.79C152.41 268.74 145.99 268.74 142.04 264.79L122.06 244.81C118.11 240.85 118.11 234.44 122.06 230.49L124.47 228.08" stroke="black" stroke-width="12" stroke-linecap="round" stroke-linejoin="round"/>
<path d="M91.7404 121.55C71.0504 152.03 78.0499 193.66 108.01 215.61C137.97 237.56 179.77 231.68 202.6 202.77L91.7501 121.55H91.7404Z" stroke="black" stroke-width="12" stroke-linecap="round" stroke-linejoin="round"/>
<path d="M114.02 137.88C102.33 156.04 106.66 180.4 124.32 193.34C141.98 206.28 166.51 203.07 180.31 186.44L114.03 137.88H114.02Z" stroke="black" stroke-width="12" stroke-linecap="round" stroke-linejoin="round"/>
<path d="M219.18 104.46H9.25977" stroke="black" stroke-width="12" stroke-linecap="round" stroke-linejoin="round"/>
<path d="M188.47 439.45H39.9598C31.4598 439.45 24.4699 432.77 24.0799 424.28L6.68001 65.29C6.26001 56.23 13.4899 48.6499 22.5599 48.6499H205.87C214.94 48.6499 222.17 56.23 221.75 65.29L204.35 424.28C203.96 432.77 196.96 439.45 188.47 439.45Z" stroke="black" stroke-width="12" stroke-linecap="round" stroke-linejoin="round"/>
<path d="M203.94 395.39H24.4902" stroke="black" stroke-width="12" stroke-linecap="round" stroke-linejoin="round"/>
</svg>
